<svg width="48" height="49" viewBox="0 0 48 49" fill="none" xmlns="http://www.w3.org/2000/svg">
<g clip-path="url(#clip0_488_3413)">
<path opacity="0.1" d="M39 48.5002H9C4.029 48.5002 0 44.4712 0 39.5002V9.50024C0 4.52924 4.029 0.500244 9 0.500244H39C43.971 0.500244 48 4.52924 48 9.50024V39.5002C48 44.4712 43.971 48.5002 39 48.5002Z" fill="#FFE298"/>
<path d="M29.2696 17.5089L27.1471 13.8714C27.0466 13.6974 26.8801 13.5729 26.6866 13.5234C26.4931 13.4754 26.2861 13.5039 26.1136 13.6074L19.623 17.4999L29.2696 17.5089Z" fill="#FFE298"/>
<path d="M15 18.5003C14.4495 18.5003 13.9995 18.0503 13.9995 17.4998C13.9995 16.9493 14.4495 16.4993 15 16.4993H18.3705L21.711 14.4998H15C13.5195 14.4998 12.2895 15.5798 12.0495 17.0003C12.03 17.0798 12 17.1608 12 17.2508V32.5013C12 34.1513 13.35 35.5013 15 35.5013H31.9995C33.099 35.5013 33.999 34.6013 33.999 33.5018V31.5023H31.5C29.0205 31.5023 27 29.4818 27 27.0023C27 24.5228 29.0205 22.5023 31.5 22.5023H34.0005V20.5028C34.0005 19.4033 33.1005 18.5033 32.001 18.5033H15V18.5003ZM31.0005 16.5008C31.0005 15.4913 30.2505 14.6513 29.271 14.5208L31.0005 17.5013V16.5008Z" fill="#FEBD27"/>
<path d="M35.25 24.001H31.5C29.8455 24.001 28.5 25.3465 28.5 27.001C28.5 28.6555 29.8455 30.001 31.5 30.001H35.25C35.664 30.001 36 29.665 36 29.251V24.751C36 24.337 35.664 24.001 35.25 24.001V24.001ZM31.5 28C30.948 28 30.4995 27.5515 30.4995 26.9995C30.4995 26.449 30.948 26.0005 31.5 26.0005C32.052 26.0005 32.5005 26.4475 32.5005 27.001C32.5005 27.553 32.052 28 31.5 28Z" fill="#FFE298"/>
</g>
<defs>
<clipPath id="clip0_488_3413">
<rect width="48" height="48" fill="white" transform="translate(0 0.500244)"/>
</clipPath>
</defs>
</svg>
